<mxfile host="app.diagrams.net" modified="2020-06-17T03:50:19.760Z" agent="5.0 (Macintosh; Intel Mac OS X 10_15_4) AppleWebKit/537.36 (KHTML, like Gecko) Chrome/83.0.4103.61 Safari/537.36" etag="o5jBPl0CdLfWsbvltv_B" version="13.2.4" type="github">
  <diagram name="Page-1" id="13e1069c-82ec-6db2-03f1-153e76fe0fe0">
    <mxGraphModel dx="1298" dy="834" grid="1" gridSize="10" guides="1" tooltips="1" connect="1" arrows="1" fold="1" page="1" pageScale="1" pageWidth="1100" pageHeight="850" background="#ffffff" math="0" shadow="0">
      <root>
        <mxCell id="0" />
        <mxCell id="1" parent="0" />
        <mxCell id="7cjOM7khNmWZnHigeGYu-7" value="option2:未初始化" style="shape=umlFrame;whiteSpace=wrap;html=1;gradientColor=none;" parent="1" vertex="1">
          <mxGeometry x="430" y="280" width="460" height="70" as="geometry" />
        </mxCell>
        <mxCell id="7cjOM7khNmWZnHigeGYu-6" value="option1:已初始化" style="shape=umlFrame;whiteSpace=wrap;html=1;gradientColor=none;" parent="1" vertex="1">
          <mxGeometry x="430" y="190" width="460" height="70" as="geometry" />
        </mxCell>
        <mxCell id="7baba1c4bc27f4b0-2" value=":AirPay&lt;br&gt;Payment" style="shape=umlLifeline;perimeter=lifelinePerimeter;whiteSpace=wrap;html=1;container=1;collapsible=0;recursiveResize=0;outlineConnect=0;rounded=1;shadow=0;comic=0;labelBackgroundColor=none;strokeWidth=1;fontFamily=Verdana;fontSize=12;align=center;fillColor=#ffe6cc;strokeColor=#d79b00;" parent="1" vertex="1">
          <mxGeometry x="267" y="80" width="100" height="710" as="geometry" />
        </mxCell>
        <mxCell id="SCf--bu4-dqeZi4qSqdn-6" value="" style="html=1;points=[];perimeter=orthogonalPerimeter;rounded=0;shadow=0;comic=0;labelBackgroundColor=none;strokeWidth=1;fontFamily=Verdana;fontSize=12;align=center;fillColor=#dae8fc;strokeColor=#6c8ebf;" parent="7baba1c4bc27f4b0-2" vertex="1">
          <mxGeometry x="45" y="50" width="10" height="550" as="geometry" />
        </mxCell>
        <mxCell id="7baba1c4bc27f4b0-3" value=":wallet&lt;br&gt;Payment" style="shape=umlLifeline;perimeter=lifelinePerimeter;whiteSpace=wrap;html=1;container=1;collapsible=0;recursiveResize=0;outlineConnect=0;rounded=1;shadow=0;comic=0;labelBackgroundColor=none;strokeWidth=1;fontFamily=Verdana;fontSize=12;align=center;fillColor=#ffe6cc;strokeColor=#d79b00;" parent="1" vertex="1">
          <mxGeometry x="400" y="80" width="100" height="660" as="geometry" />
        </mxCell>
        <mxCell id="7baba1c4bc27f4b0-13" value="" style="html=1;points=[];perimeter=orthogonalPerimeter;rounded=0;shadow=0;comic=0;labelBackgroundColor=none;strokeWidth=1;fontFamily=Verdana;fontSize=12;align=center;fillColor=#dae8fc;strokeColor=#6c8ebf;" parent="7baba1c4bc27f4b0-3" vertex="1">
          <mxGeometry x="45" y="60" width="10" height="520" as="geometry" />
        </mxCell>
        <mxCell id="7baba1c4bc27f4b0-4" value=":wallet&lt;br&gt;Engine" style="shape=umlLifeline;perimeter=lifelinePerimeter;whiteSpace=wrap;html=1;container=1;collapsible=0;recursiveResize=0;outlineConnect=0;rounded=1;shadow=0;comic=0;labelBackgroundColor=none;strokeWidth=1;fontFamily=Verdana;fontSize=12;align=center;fillColor=#ffe6cc;strokeColor=#d79b00;" parent="1" vertex="1">
          <mxGeometry x="540" y="80" width="100" height="510" as="geometry" />
        </mxCell>
        <mxCell id="7baba1c4bc27f4b0-16" value="" style="html=1;points=[];perimeter=orthogonalPerimeter;rounded=0;shadow=0;comic=0;labelBackgroundColor=none;strokeWidth=1;fontFamily=Verdana;fontSize=12;align=center;fillColor=#dae8fc;strokeColor=#6c8ebf;" parent="7baba1c4bc27f4b0-4" vertex="1">
          <mxGeometry x="45" y="290" width="10" height="40" as="geometry" />
        </mxCell>
        <mxCell id="SCf--bu4-dqeZi4qSqdn-8" value="" style="endArrow=classic;html=1;exitX=0;exitY=1;exitDx=0;exitDy=0;fillColor=#f5f5f5;strokeColor=#1A1A1A;" parent="7baba1c4bc27f4b0-4" edge="1">
          <mxGeometry width="50" height="50" relative="1" as="geometry">
            <mxPoint x="-87.99999999999909" y="100" as="sourcePoint" />
            <mxPoint x="201" y="99" as="targetPoint" />
          </mxGeometry>
        </mxCell>
        <mxCell id="zn9roqQGDPvi9zE-LwyC-4" value="" style="html=1;points=[];perimeter=orthogonalPerimeter;rounded=0;shadow=0;comic=0;labelBackgroundColor=none;strokeWidth=1;fontFamily=Verdana;fontSize=12;align=center;fillColor=#dae8fc;strokeColor=#6c8ebf;" parent="7baba1c4bc27f4b0-4" vertex="1">
          <mxGeometry x="45" y="466" width="10" height="34" as="geometry" />
        </mxCell>
        <mxCell id="7baba1c4bc27f4b0-8" value=":AirPay&amp;nbsp;&lt;br&gt;App" style="shape=umlLifeline;perimeter=lifelinePerimeter;whiteSpace=wrap;html=1;container=1;collapsible=0;recursiveResize=0;outlineConnect=0;rounded=1;shadow=0;comic=0;labelBackgroundColor=none;strokeWidth=1;fontFamily=Verdana;fontSize=12;align=center;fillColor=#ffe6cc;strokeColor=#d79b00;" parent="1" vertex="1">
          <mxGeometry x="100" y="80" width="100" height="740" as="geometry" />
        </mxCell>
        <mxCell id="7baba1c4bc27f4b0-9" value="" style="html=1;points=[];perimeter=orthogonalPerimeter;rounded=0;shadow=0;comic=0;labelBackgroundColor=none;strokeWidth=1;fontFamily=Verdana;fontSize=12;align=center;fillColor=#dae8fc;strokeColor=#6c8ebf;" parent="7baba1c4bc27f4b0-8" vertex="1">
          <mxGeometry x="45" y="60" width="10" height="540" as="geometry" />
        </mxCell>
        <mxCell id="SCf--bu4-dqeZi4qSqdn-23" value="GET /oauth(username,pwd)" style="text;html=1;strokeColor=none;fillColor=none;align=center;verticalAlign=middle;whiteSpace=wrap;rounded=0;" parent="1" vertex="1">
          <mxGeometry x="152" y="135" width="168" height="20" as="geometry" />
        </mxCell>
        <mxCell id="SCf--bu4-dqeZi4qSqdn-24" value="" style="endArrow=classic;html=1;" parent="1" target="7baba1c4bc27f4b0-2" edge="1">
          <mxGeometry width="50" height="50" relative="1" as="geometry">
            <mxPoint x="157" y="158" as="sourcePoint" />
            <mxPoint x="290" y="156" as="targetPoint" />
          </mxGeometry>
        </mxCell>
        <mxCell id="RCsnb_gnlq1DFu9hrXaE-1" value="" style="endArrow=classic;html=1;" parent="1" source="7baba1c4bc27f4b0-2" edge="1">
          <mxGeometry width="50" height="50" relative="1" as="geometry">
            <mxPoint x="465" y="178" as="sourcePoint" />
            <mxPoint x="450" y="178" as="targetPoint" />
            <Array as="points">
              <mxPoint x="360" y="178" />
            </Array>
          </mxGeometry>
        </mxCell>
        <mxCell id="RCsnb_gnlq1DFu9hrXaE-2" value="初始化交易数据" style="text;html=1;strokeColor=none;fillColor=none;align=center;verticalAlign=middle;whiteSpace=wrap;rounded=0;" parent="1" vertex="1">
          <mxGeometry x="519" y="150" width="121" height="20" as="geometry" />
        </mxCell>
        <mxCell id="kkel1wmjq2Ox8PK9XS-0-10" value="检查状态是否正确&lt;br&gt;(initial or pending)" style="html=1;verticalAlign=bottom;endArrow=block;labelBackgroundColor=none;fontFamily=Verdana;fontSize=12;elbow=vertical;edgeStyle=orthogonalEdgeStyle;curved=1;entryX=1;entryY=0.286;entryPerimeter=0;exitX=1.038;exitY=0.345;exitPerimeter=0;fillColor=#dae8fc;strokeColor=#6c8ebf;" parent="1" edge="1">
          <mxGeometry x="0.3007" y="-26" relative="1" as="geometry">
            <mxPoint x="750" y="200" as="sourcePoint" />
            <mxPoint x="755" y="238" as="targetPoint" />
            <Array as="points">
              <mxPoint x="805" y="200" />
              <mxPoint x="805" y="238" />
            </Array>
            <mxPoint x="25" y="18" as="offset" />
          </mxGeometry>
        </mxCell>
        <mxCell id="7cjOM7khNmWZnHigeGYu-1" value="&lt;span&gt;:wallet_txn_tab_N&lt;/span&gt;&lt;br&gt;&lt;span&gt;(交易流水表)&lt;/span&gt;" style="shape=umlLifeline;perimeter=lifelinePerimeter;whiteSpace=wrap;html=1;container=1;collapsible=0;recursiveResize=0;outlineConnect=0;rounded=1;shadow=0;comic=0;labelBackgroundColor=none;strokeWidth=1;fontFamily=Verdana;fontSize=12;align=center;fillColor=#ffe6cc;strokeColor=#d79b00;" parent="1" vertex="1">
          <mxGeometry x="700" y="75" width="100" height="620" as="geometry" />
        </mxCell>
        <mxCell id="7cjOM7khNmWZnHigeGYu-2" value="" style="html=1;points=[];perimeter=orthogonalPerimeter;rounded=0;shadow=0;comic=0;labelBackgroundColor=none;strokeWidth=1;fontFamily=Verdana;fontSize=12;align=center;fillColor=#dae8fc;strokeColor=#6c8ebf;" parent="7cjOM7khNmWZnHigeGYu-1" vertex="1">
          <mxGeometry x="45" y="60" width="10" height="560" as="geometry" />
        </mxCell>
        <mxCell id="7cjOM7khNmWZnHigeGYu-8" value="初始化交易数据,&lt;br&gt;修改状态为initial" style="html=1;verticalAlign=bottom;endArrow=block;labelBackgroundColor=none;fontFamily=Verdana;fontSize=12;elbow=vertical;edgeStyle=orthogonalEdgeStyle;curved=1;fillColor=#dae8fc;strokeColor=#6c8ebf;" parent="1" target="7cjOM7khNmWZnHigeGYu-2" edge="1">
          <mxGeometry x="0.3007" y="-26" relative="1" as="geometry">
            <mxPoint x="750" y="292" as="sourcePoint" />
            <mxPoint x="760" y="330" as="targetPoint" />
            <Array as="points">
              <mxPoint x="815" y="292" />
              <mxPoint x="815" y="330" />
            </Array>
            <mxPoint x="25" y="18" as="offset" />
          </mxGeometry>
        </mxCell>
        <mxCell id="7cjOM7khNmWZnHigeGYu-9" value="" style="endArrow=classic;html=1;strokeColor=#1A1A1A;" parent="1" target="7baba1c4bc27f4b0-4" edge="1">
          <mxGeometry width="50" height="50" relative="1" as="geometry">
            <mxPoint x="460" y="392" as="sourcePoint" />
            <mxPoint x="570" y="240" as="targetPoint" />
          </mxGeometry>
        </mxCell>
        <mxCell id="7cjOM7khNmWZnHigeGYu-10" value="获取ticket" style="text;html=1;strokeColor=none;fillColor=none;align=center;verticalAlign=middle;whiteSpace=wrap;rounded=0;" parent="1" vertex="1">
          <mxGeometry x="490" y="370" width="70" height="20" as="geometry" />
        </mxCell>
        <mxCell id="7cjOM7khNmWZnHigeGYu-12" value="" style="endArrow=classic;html=1;strokeColor=#1A1A1A;entryX=0.1;entryY=0.816;entryDx=0;entryDy=0;entryPerimeter=0;" parent="1" edge="1">
          <mxGeometry width="50" height="50" relative="1" as="geometry">
            <mxPoint x="320" y="442" as="sourcePoint" />
            <mxPoint x="446" y="442.0799999999999" as="targetPoint" />
            <Array as="points">
              <mxPoint x="420" y="442" />
              <mxPoint x="390" y="442" />
            </Array>
          </mxGeometry>
        </mxCell>
        <mxCell id="7cjOM7khNmWZnHigeGYu-14" value="tcc try" style="text;html=1;strokeColor=none;fillColor=none;align=center;verticalAlign=middle;whiteSpace=wrap;rounded=0;" parent="1" vertex="1">
          <mxGeometry x="360" y="405" width="40" height="20" as="geometry" />
        </mxCell>
        <mxCell id="7cjOM7khNmWZnHigeGYu-15" value="" style="endArrow=classic;html=1;strokeColor=#1A1A1A;entryX=-0.3;entryY=0.579;entryDx=0;entryDy=0;entryPerimeter=0;" parent="1" target="7cjOM7khNmWZnHigeGYu-2" edge="1">
          <mxGeometry width="50" height="50" relative="1" as="geometry">
            <mxPoint x="460" y="459" as="sourcePoint" />
            <mxPoint x="740" y="459" as="targetPoint" />
          </mxGeometry>
        </mxCell>
        <mxCell id="7cjOM7khNmWZnHigeGYu-16" value="检查是否已初始化且状态为 pending" style="text;html=1;strokeColor=none;fillColor=none;align=center;verticalAlign=middle;whiteSpace=wrap;rounded=0;" parent="1" vertex="1">
          <mxGeometry x="470" y="435" width="230" height="20" as="geometry" />
        </mxCell>
        <mxCell id="7cjOM7khNmWZnHigeGYu-17" value="" style="endArrow=classic;html=1;strokeColor=#1A1A1A;" parent="1" edge="1">
          <mxGeometry width="50" height="50" relative="1" as="geometry">
            <mxPoint x="460" y="485" as="sourcePoint" />
            <mxPoint x="589.5" y="485" as="targetPoint" />
            <Array as="points">
              <mxPoint x="530" y="485" />
            </Array>
          </mxGeometry>
        </mxCell>
        <mxCell id="7cjOM7khNmWZnHigeGYu-18" value="" style="html=1;points=[];perimeter=orthogonalPerimeter;rounded=0;shadow=0;comic=0;labelBackgroundColor=none;strokeWidth=1;fontFamily=Verdana;fontSize=12;align=center;fillColor=#dae8fc;strokeColor=#6c8ebf;" parent="1" vertex="1">
          <mxGeometry x="585" y="466" width="10" height="34" as="geometry" />
        </mxCell>
        <mxCell id="7cjOM7khNmWZnHigeGYu-20" value="send tcc try to engine" style="text;html=1;strokeColor=none;fillColor=none;align=center;verticalAlign=middle;whiteSpace=wrap;rounded=0;" parent="1" vertex="1">
          <mxGeometry x="440" y="460" width="180" height="20" as="geometry" />
        </mxCell>
        <mxCell id="7cjOM7khNmWZnHigeGYu-21" value="" style="endArrow=classic;html=1;strokeColor=#1A1A1A;" parent="1" edge="1">
          <mxGeometry width="50" height="50" relative="1" as="geometry">
            <mxPoint x="449.5" y="521" as="sourcePoint" />
            <mxPoint x="749.5" y="521" as="targetPoint" />
          </mxGeometry>
        </mxCell>
        <mxCell id="7cjOM7khNmWZnHigeGYu-22" value="" style="endArrow=classic;html=1;strokeColor=#1A1A1A;entryX=0.1;entryY=0.523;entryDx=0;entryDy=0;entryPerimeter=0;" parent="1" source="7baba1c4bc27f4b0-3" target="7cjOM7khNmWZnHigeGYu-2" edge="1">
          <mxGeometry width="50" height="50" relative="1" as="geometry">
            <mxPoint x="470" y="427" as="sourcePoint" />
            <mxPoint x="740" y="427" as="targetPoint" />
          </mxGeometry>
        </mxCell>
        <mxCell id="7cjOM7khNmWZnHigeGYu-25" value="更新状态为pending" style="text;html=1;strokeColor=none;fillColor=none;align=center;verticalAlign=middle;whiteSpace=wrap;rounded=0;" parent="1" vertex="1">
          <mxGeometry x="540" y="405" width="130" height="20" as="geometry" />
        </mxCell>
        <mxCell id="7cjOM7khNmWZnHigeGYu-27" value="更新状态为processing" style="text;html=1;strokeColor=none;fillColor=none;align=center;verticalAlign=middle;whiteSpace=wrap;rounded=0;" parent="1" vertex="1">
          <mxGeometry x="540" y="500" width="180" height="20" as="geometry" />
        </mxCell>
        <mxCell id="zn9roqQGDPvi9zE-LwyC-1" value="" style="endArrow=classic;html=1;exitX=1.1;exitY=0.648;exitDx=0;exitDy=0;exitPerimeter=0;" parent="1" edge="1">
          <mxGeometry width="50" height="50" relative="1" as="geometry">
            <mxPoint x="323" y="553.4000000000001" as="sourcePoint" />
            <mxPoint x="449.5" y="553.4000000000001" as="targetPoint" />
          </mxGeometry>
        </mxCell>
        <mxCell id="zn9roqQGDPvi9zE-LwyC-2" value="confirm" style="text;html=1;strokeColor=none;fillColor=none;align=center;verticalAlign=middle;whiteSpace=wrap;rounded=0;" parent="1" vertex="1">
          <mxGeometry x="350" y="530" width="40" height="20" as="geometry" />
        </mxCell>
        <mxCell id="zn9roqQGDPvi9zE-LwyC-6" value="confirm" style="text;html=1;strokeColor=none;fillColor=none;align=center;verticalAlign=middle;whiteSpace=wrap;rounded=0;" parent="1" vertex="1">
          <mxGeometry x="490" y="550" width="40" height="20" as="geometry" />
        </mxCell>
        <mxCell id="zn9roqQGDPvi9zE-LwyC-10" value="" style="endArrow=classic;html=1;" parent="1" source="7baba1c4bc27f4b0-3" edge="1">
          <mxGeometry width="50" height="50" relative="1" as="geometry">
            <mxPoint x="530" y="575" as="sourcePoint" />
            <mxPoint x="589.5" y="575" as="targetPoint" />
          </mxGeometry>
        </mxCell>
        <mxCell id="zn9roqQGDPvi9zE-LwyC-11" value="" style="endArrow=classic;html=1;entryX=-0.3;entryY=0.861;entryDx=0;entryDy=0;entryPerimeter=0;" parent="1" source="7baba1c4bc27f4b0-3" target="7cjOM7khNmWZnHigeGYu-2" edge="1">
          <mxGeometry width="50" height="50" relative="1" as="geometry">
            <mxPoint x="520" y="620" as="sourcePoint" />
            <mxPoint x="570" y="380" as="targetPoint" />
          </mxGeometry>
        </mxCell>
        <mxCell id="zn9roqQGDPvi9zE-LwyC-12" value="修改状态为sucess" style="text;html=1;strokeColor=none;fillColor=none;align=center;verticalAlign=middle;whiteSpace=wrap;rounded=0;" parent="1" vertex="1">
          <mxGeometry x="540" y="590" width="120" height="20" as="geometry" />
        </mxCell>
        <mxCell id="KElrnnUUttHvEZdmVfrs-1" value=":wallet_txn_order&lt;br&gt;_tab_N&lt;br&gt;(订单交易关联表)" style="shape=umlLifeline;perimeter=lifelinePerimeter;whiteSpace=wrap;html=1;container=1;collapsible=0;recursiveResize=0;outlineConnect=0;rounded=1;shadow=0;comic=0;labelBackgroundColor=none;strokeWidth=1;fontFamily=Verdana;fontSize=12;align=center;fillColor=#ffe6cc;strokeColor=#d79b00;" vertex="1" parent="1">
          <mxGeometry x="860" y="75" width="100" height="620" as="geometry" />
        </mxCell>
        <mxCell id="KElrnnUUttHvEZdmVfrs-2" value="" style="html=1;points=[];perimeter=orthogonalPerimeter;rounded=0;shadow=0;comic=0;labelBackgroundColor=none;strokeWidth=1;fontFamily=Verdana;fontSize=12;align=center;fillColor=#dae8fc;strokeColor=#6c8ebf;" vertex="1" parent="KElrnnUUttHvEZdmVfrs-1">
          <mxGeometry x="45" y="60" width="10" height="560" as="geometry" />
        </mxCell>
      </root>
    </mxGraphModel>
  </diagram>
</mxfile>
